<svg width="552.5" height="88.9343979668306" viewBox="0 0 390.00000000000006 62.77722209423337" class="css-1j8o68f"><defs id="SvgjsDefs1011"></defs><g id="SvgjsG1012" featurekey="2ou6gm-0" transform="matrix(0.05786643553998566,0,0,0.05786643553998566,20.001129117350015,20.003558155343892)" fill="#fafafa"><g xmlns="http://www.w3.org/2000/svg">
<path d="M1168.6,327.5c-57.1-39.5-153-26.2-216-12.4c-43,9.4-85.3,21.6-127.8,32.9c-46.1,12.2-62.5,18.5-103.4-8.2         c-66-43.1-131.5-87.2-197.1-131C641,168.3,757.7,129.4,876.2,94.1c57-17,118.3-42.6,177.4-49.6c38.7-4.5,41.1,12,60.6,41.4         c12.7,19.2,54.6,56.4,66.1,10.1c6.7-27-29.5-54.2-48.3-67.8c-78.5-56.8-177.1-14.8-260.5,11.8C764.4,74.3,658,110.8,551.3,146.5         c-23.5,7.9-59.9,26.9-84.9,22.2c-19.9-3.7-40.7-21.1-59.9-29.5c-48.1-20.9-99.9-31.4-151.2-41.1c-51.7-9.7-102.4-17.7-154.9-7.9         c-33.7,6.3-93.6,17.6-99.6,57.9c-10.8,72.3,87.7,117.2,144.9,119c52.7,1.7,108.6-9.9,160.8-16.7c44.7-5.8,101.3-23.1,146.4-18.6         c41.7,4.2,81.4,46.9,114.8,71.3c43.4,31.7,86.7,63.7,130,95.5c-41,18.4-81.9,37.2-123.1,55.3c-41.4,18.1-56.9,23.2-97.7,4.6         c-76.1-34.7-156.8-66.9-242.8-50.5c-75.9,14.4-51,84.9-1.1,113.9c32.6,18.9,45.9,18.7,81.3,22.7c34.6,4,66.1,27.5,102.1,32.2         c44,5.7,74.4-15.3,115.1-17.2c35.7-1.7,66.6,29.6,93.9,49.3c65.8,47.4,129.5,94.4,209.1,115.8c35.2,9.5,125.4,35.6,133.9-19.9         c3.9-25.2-13.4-58-35.6-68.5c-11.2-5.3-25.5-7.9-37.6-3.3c-25.8,9.7-18.1,13.6-10.4,38.7c-78.4,0-150.6-44.1-213.2-88.4         c-13.5-9.5-67-37.7-61.9-58.9c4.8-20,77.2-41.9,93.5-49.6c43.7-20.8,64.3-31,111.7-18c42.6,11.7,84.7,25.2,127.1,37.2         c72.8,20.6,156.7,31,225.4-11.6C1224.4,447.2,1222.7,364.9,1168.6,327.5z M184.6,233.2c-34.2,1.4-149.2-12.9-146.9-62.6         c2.6-54.5,140.7-48.2,176.2-44.9c36.2,3.3,70.8,13.5,105.3,24.7c27.9,9,82.7,15.1,80.9,46.2C329.4,210.2,256.6,230.2,184.6,233.2z          M297.5,510.3c-28.7-4.9-102.3-12.1-76.6-52c23-35.7,82.1-15.6,113.8-8.9c27.8,5.9,119.4,20.5,114.8,50         C400.4,515.7,348.5,519,297.5,510.3z M1179,412.1c-16.8,61.9-121.8,55.6-168.7,49.4c-35.6-4.8-70.4-15.3-104.8-25.3         c-14.7-4.3-40.8-6.1-52-15.1c-13-10.5-10.3-6.3-9.8-27c71.4-18.3,144-43.6,217.6-50.1C1100.7,340.5,1195.8,350.2,1179,412.1z"></path></g></g><g id="SvgjsG1013" featurekey="kZnDdN-0" transform="matrix(2.2489959839357434,0,0,2.2489959839357434,107.975902327572,11.955822864210747)" fill="#fafafa"><path d="M12.76 18.5 c-1.28 1.1 -2.9 1.7 -4.7 1.7 c-3.64 0 -7.16 -2.96 -7.16 -7.2 s3.52 -7.2 7.16 -7.2 c1.78 0 3.38 0.6 4.64 1.66 l-1.02 1.16 c-0.98 -0.78 -2.24 -1.24 -3.5 -1.24 c-2.86 0 -5.56 2.32 -5.56 5.62 s2.7 5.62 5.56 5.62 c1.28 0 2.56 -0.48 3.54 -1.28 z M21.520000000000003 5.800000000000001 c3.64 0 7.16 2.96 7.16 7.2 s-3.52 7.2 -7.16 7.2 c-3.66 0 -7.16 -2.96 -7.16 -7.2 s3.5 -7.2 7.16 -7.2 z M21.520000000000003 18.62 c2.74 0 5.44 -2.32 5.44 -5.62 s-2.7 -5.62 -5.44 -5.62 c-2.76 0 -5.44 2.32 -5.44 5.62 s2.68 5.62 5.44 5.62 z M34.940000000000005 6 c4.08 0 7.08 3.1 7.08 7 s-3 7 -7.08 7 l-4.16 0 l0 -14 l4.16 0 z M34.92 18.42 c3.34 0 5.4 -2.42 5.4 -5.42 s-2.06 -5.42 -5.4 -5.42 l-2.48 0 l0 10.84 l2.48 0 z M45.68 18.44 l6.66 0 l0 1.56 l-7.06 0 l-1.26 0 l0 -14 l1.66 0 l6.48 0 l0 1.56 l-6.48 0 l0 4.64 l5.04 0 l0 1.52 l-5.04 0 l0 4.72 z M63.22 6 l1.66 0 l0 14 l-1.66 0 l0 -6.12 l-7.12 0 l0 6.12 l-1.66 0 l0 -14 l1.66 0 l0 6.32 l7.12 0 l0 -6.32 z M75.78 6 l1.66 0 l0 8.92 c0 3.44 -2.24 5.38 -5.08 5.38 s-5.08 -1.94 -5.08 -5.38 l0 -8.92 l1.66 0 l0 8.92 c0 2.62 1.56 3.8 3.42 3.8 s3.42 -1.18 3.42 -3.8 l0 -8.92 z M89.6 6 l1.66 0 l0 14 l-1.28 0 l-8.48 -10.96 l0 10.96 l-1.66 0 l0 -14 l1.28 0 l8.48 10.98 l0 -10.98 z M102.7 6 l0 1.56 l-3.88 0 l0 12.44 l-1.66 0 l0 -12.44 l-3.9 0 l0 -1.56 l9.44 0 z M106.36000000000001 18.44 l6.66 0 l0 1.56 l-7.06 0 l-1.26 0 l0 -14 l1.66 0 l6.48 0 l0 1.56 l-6.48 0 l0 4.64 l5.04 0 l0 1.52 l-5.04 0 l0 4.72 z M125.40000000000002 20 l-1.8 0 l-3.54 -5.04 l-0.38 0 l-2.9 0 l0 5.04 l-1.66 0 l0 -14 l4.56 0 c3.14 0 4.96 1.92 4.96 4.52 c0 2 -1.08 3.56 -3 4.16 z M116.78000000000002 7.5600000000000005 l0 5.92 l2.86 0 c2.02 0 3.34 -1.04 3.34 -2.96 c0 -1.94 -1.32 -2.96 -3.34 -2.96 l-2.86 0 z">
</path></g></svg>